<svg height="512pt" preserveAspectRatio="xMidYMid meet" viewBox="0 0 512 512" width="512pt" xmlns="http://www.w3.org/2000/svg"><path d="m2477 4575c-1-1-39-5-83-9-106-8-254-47-357-93-255-115-552-412-666-665-80-180-106-310-106-548 0-179 7-241 44-372 43-153 99-272 262-558 171-301 220-404 274-580 35-115 45-162 51-252 3-46 7-88 9-94s-12-19-31-28c-70-33-90-140-40-216l22-35-23-40c-12-22-23-51-22-65 0-43 26-101 57-127 28-23 29-26 16-51-40-76 10-174 100-196 16-4 58-33 93-65 97-90 194-134 358-166 219-42 473 32 623 182 23 24 48 43 54 43s31 9 54 21c68 33 99 124 64 189-7 13-1 25 25 50 53 51 64 138 25 192-25 34-25 37 3 66 18 20 22 35 22 90 0 75-18 110-67 132-31 13-30-2-13 166 20 195 116 429 309 764 249 428 316 623 319 922 2 160-7 250-38 377-48 197-164 394-333 567-104 106-143 140-241 206-146 100-304 157-502 183-50 7-256 14-262 10zm248-134c3-5 2-12-3-15s-9 1-9 9c0 17 3 19 12 6zm-221-19c3-5-1-9-9-9s-12 4-9 9c3 4 7 8 9 8s6-4 9-8zm56 2c0-8-19-13-24-6-3 5 1 9 9 9s15-2 15-3zm26-20c1-9 0-13-4-10-3 4-7 14-8 22-1 9 0 13 4 10 3-4 7-14 8-22zm314 1c0-2-6-8-13-14-10-8-14-7-14 2 0 8 6 14 14 14 7 0 13-1 13-2zm-595-24c-9-8-36-10-30-2 2 4 11 8 20 8 8 0 13-3 10-6zm245-41c0-5-5-10-11-10-5 0-7 5-4 10 3 6 8 10 11 10 2 0 4-4 4-10zm275 0c3-5 1-10-4-10-6 0-11 5-11 10 0 6 2 10 4 10 3 0 8-4 11-10zm40 0c3-5 1-10-4-10-6 0-11 5-11 10 0 6 2 10 4 10 3 0 8-4 11-10zm45 0c0-5-2-10-4-10-3 0-8 5-11 10-3 6-1 10 4 10 6 0 11-4 11-10zm-816-18c3-5-1-9-9-9s-12 4-9 9c3 4 7 8 9 8s6-4 9-8zm890-24c-3-4-11-5-19-1-21 7-19 12 4 10 11 0 18-5 15-9zm56 6c0-8-19-13-24-6-3 5 1 9 9 9s15-2 15-3zm-713-19c0-8-4-12-9-9s-6 10-3 15c9 13 12 11 12-6zm158 5c-4-6-1-19 6-28 12-16 12-16-5 0-16 14-15 38 0 38 3 0 2-5-1-10zm125 6c0-2-8-10-17-17-16-13-17-12-4 4s21 21 21 13zm-625-16c3-5 1-10-4-10-6 0-11 5-11 10 0 6 2 10 4 10 3 0 8-4 11-10zm150 0c-3-5-12-10-18-10-7 0-6 4 3 10 19 12 23 12 15 0zm430 1c-9-8-36-10-30-2 2 4 11 8 20 8 8 0 13-3 10-6zm505 5c0-3-4-8-10-11-5-3-10-1-10 4 0 6 5 11 10 11 6 0 10-2 10-4zm60-10c0-2-6-9-14-15-11-9-16-9-22 0-4 7-3 9 4 5 6-3 13-2 17 4 6 10 15 14 15 6zm-1104-32c1-9 0-13-4-10-3 4-7 14-8 22-1 9 0 13 4 10 3-4 7-14 8-22zm1004 22c0-3-4-8-10-11-5-3-10-1-10 4 0 6 5 11 10 11 6 0 10-2 10-4zm-724-28c4-7 4-10-1-6-4 4-15 2-24-5-14-11-14-10-2 6 16 20 18 21 27 5zm419 3c3-5 2-12-3-15s-9 1-9 9c0 17 3 19 12 6zm458-16c-7-21-12-19-10 4 0 11 5 18 9 15s5-11 1-19zm-813 1c0-2-7-7-16-10-8-3-12-2-9 4 6 10 25 14 25 6zm85-6c3-6-1-7-9-4-18 7-21 14-7 14 6 0 13-4 16-10zm240 0c3-6-1-7-9-4-18 7-21 14-7 14 6 0 13-4 16-10zm432-13c0-8-6-14-14-14-9 0-10 4-2 14 6 7 12 13 14 13 1 0 2-6 2-13zm-1221-23c1-9 0-13-4-10-3 4-7 14-8 22-1 9 0 13 4 10 3-4 7-14 8-22zm295 9c13-16 12-17-3-4-10 7-18 15-18 17 0 8 8 3 21-13zm100-6c-10-9-11-8-5 6 3 10 9 15 12 12s0-11-7-18zm73 15c3-5-1-9-9-9s-12 4-9 9c3 4 7 8 9 8s6-4 9-8zm70 0c3-5-1-9-9-9s-12 4-9 9c3 4 7 8 9 8s6-4 9-8zm240 0c3-5-1-9-9-9s-12 4-9 9c3 4 7 8 9 8s6-4 9-8zm61-1c-9-8-36-10-30-2 2 4 11 8 20 8 8 0 13-3 10-6zm149 1c3-5-1-9-9-9s-12 4-9 9c3 4 7 8 9 8s6-4 9-8zm307-15c-10-9-11-8-5 6 3 10 9 15 12 12s0-11-7-18zm-387-9c-3-4-9-8-15-8-5 0-9 4-9 8 0 5 7 9 15 9s12-4 9-9zm33-3c0-8-4-12-9-9s-6 10-3 15c9 13 12 11 12-6zm403 5c0-5-2-10-4-10-3 0-8 5-11 10-3 6-1 10 4 10 6 0 11-4 11-10zm-867-15c-3-9-8-14-10-11-3 3-2 9 2 15 9 16 15 13 8-4zm222 6c3-5 2-12-3-15s-9 1-9 9c0 17 3 19 12 6zm65-12c0-5-4-9-8-9-5 0-9 7-9 15s4 12 9 9c4-3 8-9 8-15zm77 6c0-8-4-12-9-9s-6 10-3 15c9 13 12 11 12-6zm-486-18c-10-9-11-8-5 6 3 10 9 15 12 12s0-11-7-18zm49 13c0-5-5-10-11-10-5 0-7 5-4 10 3 6 8 10 11 10 2 0 4-4 4-10zm37-7c0-9-4-10-14-2-7 6-13 12-13 14 0 1 6 2 13 2 8 0 14-6 14-14zm537 9c3-5-1-9-9-9s-12 4-9 9c3 4 7 8 9 8s6-4 9-8zm-1058-38c1-9 0-13-4-10-3 4-7 14-8 22-1 9 0 13 4 10 3-4 7-14 8-22zm79 16c3-5 1-10-4-10-6 0-11 5-11 10 0 6 2 10 4 10 3 0 8-4 11-10zm305 6c0-2-7-7-16-10-8-3-12-2-9 4 6 10 25 14 25 6zm1060-6c0-5-5-10-11-10-5 0-7 5-4 10 3 6 8 10 11 10 2 0 4-4 4-10zm-880-21c0-5-4-9-8-9-5 0-9 7-9 15s4 12 9 9c4-3 8-9 8-15zm393 6c15 1 25-1 22-4-13-12-56-7-68 8-10 14-10 14 3 5 8-6 27-10 43-9zm87-6c0-5-4-9-8-9-5 0-9 7-9 15s4 12 9 9c4-3 8-9 8-15zm-766 3c3-5-1-9-9-9s-12 4-9 9c3 4 7 8 9 8s6-4 9-8zm110 0c3-5-1-9-9-9s-12 4-9 9c3 4 7 8 9 8s6-4 9-8zm82-4c3-4-1-5-10-4-8 1-18 5-22 8-3 4 1 5 10 4 8-1 18-5 22-8zm38 0c-3-4-9-8-15-8-5 0-9 4-9 8 0 5 7 9 15 9s12-4 9-9zm196 2c0-5-5-10-11-10-5 0-7 5-4 10 3 6 8 10 11 10 2 0 4-4 4-10zm125 0c3-6-1-7-9-4-18 7-21 14-7 14 6 0 13-4 16-10zm30 0c3-5 1-10-4-10-6 0-11 5-11 10 0 6 2 10 4 10 3 0 8-4 11-10zm-74-17c13-16 12-17-3-4-17 13-22 21-14 21 2 0 10-8 17-17zm-701-3c0-5-5-10-11-10-5 0-7 5-4 10 3 6 8 10 11 10 2 0 4-4 4-10zm171-7c13-16 12-17-3-4-17 13-22 21-14 21 2 0 10-8 17-17zm326-1c-17-18-51-27-41-10 3 5 9 6 14 3 4-3 13 2 20 10s15 15 18 15-2-8-11-18zm600 11c-4-3-1-13 6-22 11-14 10-14-5-2-16 12-16 31-1 31 4 0 3-3 0-7zm298-2c3-5 2-12-3-15s-9 1-9 9c0 17 3 19 12 6zm-1078-15c0-15-21-16-34-1-4 4-3 5 4 1 6-3 14-2 18 4 8 14 12 13 12-4zm279-12c1-9 0-13-4-10-3 4-7 14-8 22-1 9 0 13 4 10 3-4 7-14 8-22zm200 6c0-12-4-16-9-11s-6 14-3 20c10 15 12 14 12-9zm-232-1c3-3-5-5-19-5-13 0-22 3-19 7 4 8 30 6 38-2zm121 2c-9-8-36-10-30-2 2 4 11 8 20 8 8 0 13-3 10-6zm75 0c0-6-4-12-8-15-5-3-9 1-9 9s4 15 9 15c4 0 8-4 8-9zm284 1c3-5-1-9-9-9s-12 4-9 9c3 4 7 8 9 8s6-4 9-8zm106 2c0-8-19-13-24-6-3 5 1 9 9 9s15-2 15-3zm-730-18c0-2-7-7-16-10-8-3-12-2-9 4 6 10 25 14 25 6zm31-13c13-16 12-17-3-4-10 7-18 15-18 17 0 8 8 3 21-13zm454 8c-9-8-36-10-30-2 2 4 11 8 20 8 8 0 13-3 10-6zm275 5c0-3-4-8-10-11-5-3-10-1-10 4 0 6 5 11 10 11 6 0 10-2 10-4zm-1066-24c2-4-5-9-17-9-17-2-19 0-7 7 18 12 18 12 24 2zm61-1c3-5 2-12-3-15s-9 1-9 9c0 17 3 19 12 6zm75 4c0-2-6-8-13-14-10-8-14-7-14 2 0 8 6 14 14 14 7 0 13-1 13-2zm367-13c0-10-6-19-13-19-9 0-9 5-1 19 7 10 13 18 14 18s1-8 0-18zm177 6c-3-4-11-5-19-1-21 7-19 12 4 10 11 0 18-5 15-9zm146 2c0-5-5-10-11-10-5 0-7 5-4 10 3 6 8 10 11 10 2 0 4-4 4-10zm100 1c0-6-4-12-8-15-5-3-9 1-9 9s4 15 9 15c4 0 8-4 8-9zm194-7c3-8 2-12-4-9s-10 10-10 16c0 14 7 11 14-7zm-898-12c-3-3 0-12 6-21 10-13 10-14-2-4-16 15-23 46-8 37 5-3 7-9 4-12zm524 14c0-2-8-10-17-17-16-13-17-12-4 4s21 21 21 13zm-980-16c0-5-5-10-11-10-5 0-7 5-4 10 3 6 8 10 11 10 2 0 4-4 4-10zm620-25c0-5-5-3-10 5s-10 20-10 25c0 6 5 3 10-5s10-19 10-25zm250 31c0-2-8-10-17-17-16-13-17-12-4 4s21 21 21 13zm745-5c-9-8-36-10-30-2 2 4 11 8 20 8 8 0 13-3 10-6zm-1058-16c0-8-3-13-5-10-3 3-15-3-26-12-15-14-18-14-8-2 6 9 8 20 4 24-4 5-2 5 5 1 6-3 14-2 18 4 9 14 12 13 12-5zm136 0c-3-9-8-14-10-11-3 3-2 9 2 15 9 16 15 13 8-4zm217 0c-7-9-15-13-18-10s-12-1-21-8c-14-11-14-10-2 5 7 10 17 16 21 13 5-3 11-1 15 5 3 5 9 10 12 10s0-7-7-15zm210 11c0-2-8-10-17-17-16-13-17-12-4 4s21 21 21 13zm160-17c0-5-4-9-8-9-5 0-9 7-9 15s4 12 9 9c4-3 8-9 8-15zm-885-7c-3-3-11 0-18 7-9 10-8 11 6 5 10-3 15-9 12-12zm382 11c-4-3-1-13 6-22 11-14 10-14-5-2-16 12-16 31-1 31 4 0 3-3 0-7zm57-9c3-8 2-12-4-9s-10 10-10 16c0 14 7 11 14-7zm171 6c3-6-1-7-9-4-18 7-21 14-7 14 6 0 13-4 16-10zm179 2c3-5-1-9-9-9s-12 4-9 9c3 4 7 8 9 8s6-4 9-8zm-1267-17c0-8-4-12-9-9s-6 10-3 15c9 13 12 11 12-6zm1023 11c0-2-8-10-17-17-16-13-17-12-4 4s21 21 21 13zm-710-11c0-2-6-8-13-14-10-8-14-7-14 2 0 8 6 14 14 14 7 0 13-1 13-2zm26-36c1-22-2-35-6-29-7 12-5 70 3 70 1 0 3-18 3-41zm1380 29c3-4-1-5-10-4-8 1-18 5-22 8-3 4 1 5 10 4 8-1 18-5 22-8zm-1150-20c12-14 13-18 3-10-9 6-18 10-21 7-2-3-5 2-5 10 0 19 0 19 23-7zm74 18c0-2-8-10-17-17-16-13-17-12-4 4s21 21 21 13zm177-41c0-8-4-12-9-9-5 4-7 9-4 12s-2 15-11 26c-18 21-18 21 3 3 11-9 21-24 21-32zm95 30c2 3 5-2 5-10 0-19 0-19-23 7-12 14-13 18-3 10 9-6 18-10 21-7zm68 12c0-2-8-11-18-20-15-14-19-15-19-2 0 8 4 12 8 9 4-2 10 0 14 6 6 10 15 14 15 7zm-835-17c-3-5-12-10-18-10-7 0-6 4 3 10 19 12 23 12 15 0zm366-7c13-17 13-17-6-3-11 8-22 16-24 17-2 2 0 3 6 3s17-8 24-17zm160 0c13-16 12-17-3-4-17 13-22 21-14 21 2 0 10-8 17-17zm386-7c18-21 18-21-3-3-11 9-23 14-26 11s-8-1-12 4c-11 18 25 8 41-12zm82 21c-2-2-11-8-20-15-12-9-16-9-16 1 0 7 9 14 20 14 11 1 18 1 16 0zm116-29c-7-32-13-32-11 1 0 16 4 27 8 25s5-14 3-26zm85 22c0-5-5-10-11-10-5 0-7 5-4 10 3 6 8 10 11 10 2 0 4-4 4-10zm35-8c-3-3-11 0-18 7-9 10-8 11 6 5 10-3 15-9 12-12zm295 14c0-2-8-10-17-17-16-13-17-12-4 4s21 21 21 13zm-1284-28c3-4-1-5-10-4-8 1-18 5-22 8-3 4 1 5 10 4 8-1 18-5 22-8zm74 8c0-2-7-7-16-10-8-3-12-2-9 4 6 10 25 14 25 6zm25-43c-18-17-18-17-6 0 11 14 11 20 0 35-12 16-12 16 6 0 19-18 19-18 0-35zm124 33c9-11 9-16-1-22-7-4-10-4-6 1 4 4 3 14-3 22-6 7-9 13-6 13 2 0 10-6 16-14zm177 2c3-4-1-5-10-4-8 1-18 5-22 8-3 4 1 5 10 4 8-1 18-5 22-8zm69 4c-3-3 2-14 12-24 24-27 10-22-15 5-17 18-19 24-7 24 8 0 13-3 10-5zm44-26c-3-3-11 5-18 17-13 21-12 21 5 5 10-10 16-20 13-22zm91 30c0-2-8-10-17-17-16-13-17-12-4 4s21 21 21 13zm147-14c-17-18-51-27-41-10 3 5 9 6 14 3 4-3 13 2 20 10s15 15 18 15-2-8-11-18zm-561-4c5 4 6 3 2-2s-2-16 4-25c10-12 7-12-8 2-11 9-23 15-26 12-2-3-5 2-5 10 0 10 4 12 12 5 7-5 16-6 21-2zm465-5c13-16 12-17-3-4-17 13-22 21-14 21 2 0 10-8 17-17zm273-13c-6-6-10-3-10 10s4 16 10 10c7-7 7-13 0-20zm142 15c-1-8-5-17-8-21-5-4-4 16 1 34 3 9 9-1 7-13zm-1546 1c0-2-8-10-17-17-16-13-17-12-4 4s21 21 21 13zm1100 0c0-2-8-10-17-17-16-13-17-12-4 4s21 21 21 13zm181-13c13-16 12-17-3-5-9 8-23 10-29 6-8-4-9-3-5 4 10 17 21 15 37-5zm383 9c3-5-1-9-9-9s-12 4-9 9c3 4 7 8 9 8s6-4 9-8zm37-9c13-16 12-17-3-4-17 13-22 21-14 21 2 0 10-8 17-17zm-1154-8c0-8-10-23-21-32-21-18-21-18-2 5 11 12 16 22 12 22s-4 5-1 10c9 14 12 13 12-5zm-502-4c3-5 2-12-3-15s-9 1-9 9c0 17 3 19 12 6zm463-11c-7-10-14-17-17-15-4 4 18 35 25 35 2 0-1-9-8-20zm207 10c-3-5-12-10-18-10-7 0-6 4 3 10 19 12 23 12 15 0zm45 5c0-2-6-8-13-14-10-8-14-7-14 2 0 8 6 14 14 14 7 0 13-1 13-2zm741-18c-10-9-11-8-5 6 3 10 9 15 12 12s0-11-7-18zm86 8c0-8-4-12-9-9-4 3-8 9-8 15 0 5 4 9 8 9 5 0 9-7 9-15zm158 6c3-5 2-12-3-15s-9 1-9 9c0 17 3 19 12 6zm65-1c0-5-5-10-11-10-5 0-7 5-4 10 3 6 8 10 11 10 2 0 4-4 4-10zm-1443-13c0-13-60-18-72-5-3 3 8 4 25 3s33 1 36 6c7 13 11 11 11-4zm57-16c-2-3-12 3-22 13-16 17-16 18 5 5 12-7 20-15 17-18zm183 14c0-8-3-13-5-10-3 3-12-1-21-7-10-8-9-4 3 10 23 26 23 26 23 7zm49-7c12-14 13-18 3-10-9 6-18 10-21 7-2-3-5 2-5 10 0 19 0 19 23-7zm541 4c-10-10-15-21-12-24 3-2-2-5-10-5-10 0-12 4-5 12 5 7 6 16 2 20-4 5-2 5 5 1 6-3 14-2 18 4 3 5 9 10 12 10s-1-8-10-18zm69 6c5 4 6 3 2-2s-4-14 2-20c6-8 3-12-10-12-10 0-16 4-13 9 2 4-1 16-9 25-11 15-11 15 3 5 9-7 20-9 25-5zm78-17c-2-3-12 3-22 13-16 17-16 18 5 5 12-7 20-15 17-18zm304 4c-3-3-9 2-12 12-6 14-5 15 5 6 7-7 10-15 7-18zm-1738 11c0-3-4-8-10-11-5-3-10-1-10 4 0 6 5 11 10 11 6 0 10-2 10-4zm870 0c0-2-8-10-17-17-16-13-17-12-4 4s21 21 21 13zm46-18c19-23 19-23-2-5-11 9-24 14-27 10-4-3-7-1-7 5 0 19 15 14 36-10zm477 4c15-16 15-19 2-19-8 0-13 3-10 5 3 3 0 11-6 19-17 20-5 16 14-5zm88 5c-6-8-9-16-6-19 3-2-2-5-10-5-13 0-13 3 2 19 19 21 31 25 14 5zm159 9c0-3-4-8-10-11-5-3-10-1-10 4 0 6 5 11 10 11 6 0 10-2 10-4zm75-5c3-5 2-12-3-15s-9 1-9 9c0 17 3 19 12 6zm90-1c3-6-1-7-9-4-18 7-21 14-7 14 6 0 13-4 16-10zm-990-10c3-6-1-7-9-4-18 7-21 14-7 14 6 0 13-4 16-10zm502-3c0-8-6-14-14-14-9 0-10 4-2 14 6 7 12 13 14 13 1 0 2-6 2-13zm-1177-7c0-5-5-10-11-10-5 0-7 5-4 10 3 6 8 10 11 10 2 0 4-4 4-10zm35 0c3-5 1-10-4-10-6 0-11 5-11 10 0 6 2 10 4 10 3 0 8-4 11-10zm475 6c0-2-8-10-17-17-16-13-17-12-4 4s21 21 21 13zm141-13c13-16 12-17-3-4-10 7-18 15-18 17 0 8 8 3 21-13zm733 9c2-4-4-8-14-8s-16 4-14 8c3 4 9 8 14 8s11-4 14-8zm80 0c2-4-4-8-14-8s-16 4-14 8c3 4 9 8 14 8s11-4 14-8zm80 0c2-4-4-8-14-8s-16 4-14 8c3 4 9 8 14 8s11-4 14-8zm216 4c0-3-4-8-10-11-5-3-10-1-10 4 0 6 5 11 10 11 6 0 10-2 10-4zm-1503-51c0-8-4-12-9-9-5 4-7 9-4 12s-2 15-11 26c-18 21-18 21 3 3 11-9 21-24 21-32zm136 30c-3-9-8-14-10-11-3 3-2 9 2 15 9 16 15 13 8-4zm160 0c-3-9-8-14-10-11-3 3-2 9 2 15 9 16 15 13 8-4zm45-10c-3-3-9 2-12 12-6 14-5 15 5 6 7-7 10-15 7-18zm135 10c-3-9-8-14-10-11-3 3-2 9 2 15 9 16 15 13 8-4zm-608-4c-9-8-36-10-30-2 2 4 11 8 20 8 8 0 13-3 10-6zm349-7c3-8 2-12-4-9s-10 10-10 16c0 14 7 11 14-7zm277-7c-10-9-11-8-5 6 3 10 9 15 12 12s0-11-7-18zm1104 14c3-5 2-12-3-15s-9 1-9 9c0 17 3 19 12 6zm-1434-18c13-16 12-17-3-4-10 7-18 15-18 17 0 8 8 3 21-13zm159 13c0-2-8-10-17-17-16-13-17-12-4 4s21 21 21 13zm-360-14c0-5-7-9-15-9s-12 4-9 9c3 4 9 8 15 8 5 0 9-4 9-8zm315-12c10-11 16-20 13-20s-13 9-23 20-16 20-13 20 13-9 23-20zm520 12c-3-3 0-10 5-17 7-8 5-12-5-12-8 0-13 3-10 5 3 3 0 10-5 17-7 8-5 12 5 12 8 0 13-3 10-5zm48-9c-4-10-9-11-19-2-18 15-18 15 5 15 11 0 17-5 14-13zm114 10c-4-3 1-16 10-27 14-15 14-18 2-8-9 6-18 9-22 6-3-3-4 2-2 13 5 24 4 23 12 23 3 0 3-3 0-7zm38-1c-3-3 0-11 7-19 6-7 9-15 7-17s-12 6-21 18c-13 18-14 23-2 23 8 0 12-3 9-5zm45-6c-7-7-13-7-20 0-6 6-3 10 10 10s16-4 10-10zm50 9c0-1-10-10-22-21-14-12-18-13-10-3 6 9 10 18 7 21-3 2 2 5 10 5s15-1 15-2zm-935-43c-3-3 3-15 12-26 18-21 18-21-5-2-12 11-20 21-17 24s-3 15-12 26c-18 21-18 21 5 2 12-11 20-21 17-24zm57 23c2 3 5-2 5-10 0-19 0-19-23 7-12 14-13 18-3 10 9-6 18-10 21-7zm118 0c-7-8-17-15-23-15s-2 7 9 15c25 19 30 19 14 0zm850 11c0-2-8-10-17-17-16-13-17-12-4 4s21 21 21 13zm41-13c13-16 12-17-3-4-17 13-22 21-14 21 2 0 10-8 17-17zm-1470-10c13-16 12-17-3-4-10 7-18 15-18 17 0 8 8 3 21-13zm362-1c15-16 15-19 2-19-8 0-13 3-10 5 3 3 0 11-6 19-17 20-5 16 14-5zm317 8c8-5 11-10 5-10-5 0-17 5-25 10s-10 10-5 10c6 0 17-5 25-10zm440 6c0-2-8-10-17-17-16-13-17-12-4 4s21 21 21 13zm261-13c13-16 12-17-3-4-15 11-21 11-35 0-16-13-17-12-4 4 7 9 17 17 21 17s14-8 21-17zm154 7c3-6-1-7-9-4-18 7-21 14-7 14 6 0 13-4 16-10zm55 1c0-6-4-12-8-15-5-3-9 1-9 9s4 15 9 15c4 0 8-4 8-9zm319 6c-2-1-13-9-24-17-19-14-19-14-6 3 7 9 18 17 24 17s8-1 6-3zm-2044-16c3-5 2-12-3-15s-9 1-9 9c0 17 3 19 12 6zm744-4c8-10 7-14-2-14-8 0-14 6-14 14 0 7 1 13 2 13 2 0 8-6 14-13zm-408-14c13-16 12-17-3-4-10 7-18 15-18 17 0 8 8 3 21-13zm89 2c-10-12-10-18 1-32 12-17 12-17-6-1-15 14-16 20-5 32 7 9 15 16 17 16 3 0 0-7-7-15zm45 5c3-6-1-7-9-4-18 7-21 14-7 14 6 0 13-4 16-10zm106-7c13-16 12-17-3-4-10 7-18 15-18 17 0 8 8 3 21-13zm214 7c-3-5-12-10-18-10-7 0-6 4 3 10 19 12 23 12 15 0zm479 2c3-5-1-9-9-9s-12 4-9 9c3 4 7 8 9 8s6-4 9-8zm316 0c0-5-7-9-15-9s-12 4-9 9c3 4 9 8 15 8 5 0 9-4 9-8zm-259-19c13-16 12-17-3-4-17 13-22 21-14 21 2 0 10-8 17-17zm347 8c16 12 16 12 0-6-18-19-18-19-35 0-17 18-17 18 0 6 14-11 20-11 35 0zm-1564-9c3-5-1-9-9-9s-12 4-9 9c3 4 7 8 9 8s6-4 9-8zm46 2c0-8-19-13-24-6-3 5 1 9 9 9s15-2 15-3zm41-17c-10-9-11-8-5 6 3 10 9 15 12 12s0-11-7-18zm1029 19c0-3-4-8-10-11-5-3-10-1-10 4 0 6 5 11 10 11 6 0 10-2 10-4zm131-19c-10-9-11-8-5 6 3 10 9 15 12 12s0-11-7-18zm64-30c0-23 4-49 9-57 7-12 6-13-5-2-7 7-14 35-15 62 0 28 1 48 4 45s6-25 7-48zm322 38c0-8-4-12-9-9s-6 10-3 15c9 13 12 11 12-6zm-1441-10c-1-8-8-21-16-28-10-10-11-9-4 3 5 8 9 18 10 23 3 14 4 17 8 17 2 0 3-7 2-15zm156-2c-1-4 7-17 16-28 17-20 17-20-4-2-11 9-21 24-21 32s2 13 5 11c2-2 4-8 4-13zm368 13c0-2-8-10-17-17-16-13-17-12-4 4s21 21 21 13zm-325-14c-3-3 0-11 6-19 17-20 5-16-14 5-15 16-15 19-2 19 8 0 13-3 10-5zm40-10c-3-3-11 0-18 7-9 10-8 11 6 5 10-3 15-9 12-12zm85 12c0-8-19-13-24-6-3 5 1 9 9 9s15-2 15-3zm85-3c-9-8-36-10-30-2 2 4 11 8 20 8 8 0 13-3 10-6zm750-9c-3-3-11 0-18 7-9 10-8 11 6 5 10-3 15-9 12-12zm49 10c2-4-4-8-14-8s-16 4-14 8c3 4 9 8 14 8s11-4 14-8zm532-4c3-4-1-5-10-4-8 1-18 5-22 8-3 4 1 5 10 4 8-1 18-5 22-8zm-1936-2c0-2-8-10-17-17-16-13-17-12-4 4s21 21 21 13zm306-18c12-14 13-18 3-10-9 6-18 10-21 7-2-3-5 2-5 10 0 19 0 19 23-7zm234 18c0-2-8-10-17-17-16-13-17-12-4 4s21 21 21 13zm1261-13c13-16 12-17-3-4-17 13-22 21-14 21 2 0 10-8 17-17zm-1701-3c0-5-5-10-11-10-5 0-7 5-4 10 3 6 8 10 11 10 2 0 4-4 4-10zm40 4c0-8-19-13-24-6-3 5 1 9 9 9s15-2 15-3zm339 3c-2-1-13-9-24-17-19-14-19-14-6 3 7 9 18 17 24 17s8-1 6-3zm138-19c-3-8-6-5-6 6-1 11 2 17 5 13 3-3 4-12 1-19zm539-3c0-28-8-24-13 5-2 11 1 20 5 20s8-11 8-25zm301 8c0-9-4-10-13-2-7 6-19 7-25 3-7-4-9-3-5 4 9 15 43 11 43-5zm-899-6c8-10 6-13-11-14-12 0-16 1-9 4 6 3 10 9 6 14-8 14 2 11 14-4zm962 9c0-2-8-10-17-17-16-13-17-12-4 4s21 21 21 13zm-1665-15c3-5 2-12-3-15s-9 1-9 9c0 17 3 19 12 6zm496-8c13-16 12-17-3-4-10 7-18 15-18 17 0 8 8 3 21-13zm892 4c-2-4 1-16 9-25 11-15 11-15-3-5-9 7-20 9-25 5s-6-3-2 2 4 14-2 20c-6 8-3 12 10 12 10 0 16-4 13-9zm348-4c13-16 12-17-3-4-10 7-18 15-18 17 0 8 8 3 21-13zm-1451 4c0-2-8-11-18-20-15-14-19-15-19-2 0 8 4 12 8 9 4-2 10 0 14 6 6 10 15 14 15 7zm34-27c-6-6-10-3-10 10s4 16 10 10c7-7 7-13 0-20zm252 8c13-16 14-19 2-10-13 10-17 10-21 0-3-7-4-3-4 10 1 12 2 22 3 22 0 0 9-10 20-22zm987 7c-3-9-8-14-10-11-3 3-2 9 2 15 9 16 15 13 8-4zm67 12c0-2-10-12-22-23l-23-19 19 23c18 21 26 27 26 19zm47-15c-10-10-15-21-12-24s-5-13-17-24l-23-19 19 23c11 12 15 22 11 22s0 9 10 20 20 20 23 20-2-8-11-18zm-1252-78c1-41-1-77-4-79s-6 35-6 81c-1 46 1 81 4 78s6-39 6-80zm56 69c13-16 12-17-3-4-10 7-18 15-18 17 0 8 8 3 21-13zm876-5c-3-8-6-5-6 6-1 11 2 17 5 13 3-3 4-12 1-19zm364 5c13-16 12-17-3-4-17 13-22 21-14 21 2 0 10-8 17-17zm93 5c-3-4-9-8-15-8-5 0-9 4-9 8 0 5 7 9 15 9s12-4 9-9zm86 7c0-2-6-8-13-14-10-8-14-7-14 2 0 8 6 14 14 14 7 0 13-1 13-2zm210 1c0-3-4-8-10-11-5-3-10-1-10 4 0 6 5 11 10 11 6 0 10-2 10-4zm-2105-25c-9-8-36-10-30-2 2 4 11 8 20 8 8 0 13-3 10-6zm477-15c3 3 8 1 12-4 11-18-25-8-41 12-18 21-18 21 3 3 11-9 23-14 26-11zm151 7c-4-10-9-11-19-2-18 15-18 15 5 15 11 0 17-5 14-13zm79 10c-6-3-9-10-5-16 4-7-1-6-10 2-21 17-21 17 6 18 12 0 16-1 9-4zm803-3c-3-5-12-10-18-10-7 0-6 4 3 10 19 12 23 12 15 0zm125 6c0-2-8-10-17-17-16-13-17-12-4 4s21 21 21 13zm507-11c0-8-4-12-9-9s-6 10-3 15c9 13 12 11 12-6zm-710-17c-3-8-6-5-6 6-1 11 2 17 5 13 3-3 4-12 1-19zm132 9c8-10 7-14-2-14-8 0-14 6-14 14 0 7 1 13 2 13 2 0 8-6 14-13zm-1668-20c-10-9-11-8-5 6 3 10 9 15 12 12s0-11-7-18zm694 13c3-6-1-7-9-4-18 7-21 14-7 14 6 0 13-4 16-10zm1156-3c-6-8-9-16-6-19 3-2-2-5-10-5-13 0-13 3 2 19 19 21 31 25 14 5zm53 1c-3-4-11-5-19-1-21 7-19 12 4 10 11 0 18-5 15-9zm46 6c0-8-19-13-24-6-3 5 1 9 9 9s15-2 15-3zm64-2c3-5-1-9-9-9s-12 4-9 9c3 4 7 8 9 8s6-4 9-8zm-1523-19c13-16 12-17-3-4-10 7-18 15-18 17 0 8 8 3 21-13zm1120 0c13-16 12-17-3-4-17 13-22 21-14 21 2 0 10-8 17-17zm-927-1c3-5-1-9-9-9s-12 4-9 9c3 4 7 8 9 8s6-4 9-8zm166 2c0-8-19-13-24-6-3 5 1 9 9 9s15-2 15-3zm725-3c-9-8-36-10-30-2 2 4 11 8 20 8 8 0 13-3 10-6zm112-8c-14-14-19-15-29-4-11 10-10 11 3 6 10-4 20-2 24 4 3 6 9 11 13 11 3 0-1-8-11-17zm538 8c3-5 2-12-3-15s-9 1-9 9c0 17 3 19 12 6zm-120-13c5 4 5 1 1-6-6-10-11-10-22-1-8 6-14 14-14 16 0 3 6 0 13-6 8-6 18-7 22-3zm-1635-7c0-6-4-12-8-15-5-3-9 1-9 9s4 15 9 15c4 0 8-4 8-9zm337-4c0-7-8-13-18-13-13 0-15 3-7 13 6 7 14 13 18 13 3 0 7-6 7-13zm733 3c8-5 11-10 5-10-5 0-17 5-25 10s-10 10-5 10c6 0 17-5 25-10zm-1476-18c3-5-1-9-9-9s-12 4-9 9c3 4 7 8 9 8s6-4 9-8zm50 0c3-5-1-9-9-9s-12 4-9 9c3 4 7 8 9 8s6-4 9-8zm293-15c1-11 1-18 0-16-2 2-8 11-15 20-9 12-9 16 1 16 7 0 14-9 14-20zm78 3c-10-11-20-18-23-15s-15-3-26-12c-21-18-21-18-2 4 10 13 22 20 26 18 4-3 13 2 20 10s15 15 18 15-3-9-13-20zm126 7c-6-8-7-18-3-22 4-5 1-5-6-1-10 6-10 11-1 22 6 8 14 14 16 14 3 0 0-6-6-13zm27-17c-7-11-14-17-17-15-2 3 1 11 7 18 7 8 8 18 4 22-4 5-1 5 5 1 10-5 10-11 1-26zm1047 12c-3-3-11 0-18 7-9 10-8 11 6 5 10-3 15-9 12-12zm49 6c-3-5-2-15 3-21 4-7 1-5-8 5-9 9-20 14-24 10-5-4-5-2-2 4s13 11 21 11 13-4 10-9zm46 7c0-2-6-8-13-14-10-8-14-7-14 2 0 8 6 14 14 14 7 0 13-1 13-2zm30-10c-5-7-9-14-7-16 1-2 0-3-2-2-2 2-11-3-20-9-12-10-12-7 2 8 9 11 15 23 12 26-3 2 2 5 10 5 10 0 12-4 5-12zm50 10c0-1-10-10-22-21-14-12-18-13-10-3 6 9 10 18 7 21-3 2 2 5 10 5s15-1 15-2zm154-3c3-5-1-9-9-9s-15 4-15 9c0 4 4 8 9 8 6 0 12-4 15-8zm-1647-17c0-8-4-15-9-15-10 0-11 14-1 23 9 10 10 9 10-8zm380-7c0-13-1-17-4-10-3 6-10 9-16 5-7-4-6 1 2 10 17 21 17 21 18-5zm-413 4c3-5-1-9-9-9s-12 4-9 9c3 4 7 8 9 8s6-4 9-8zm376 0c0-5-7-9-15-9s-12 4-9 9c3 4 9 8 15 8 5 0 9-4 9-8zm90 3c0-2-6-8-13-14-10-8-14-7-14 2 0 8 6 14 14 14 7 0 13-1 13-2zm847-15c-1-11-5-20-9-20-3 0-6 9-5 20s5 20 9 20c3 0 6-9 5-20zm242 17c-2-1-13-9-24-17-19-14-19-14-6 3 7 9 18 17 24 17s8-1 6-3zm-199-11c0-2-8-10-17-17-16-13-17-12-4 4s21 21 21 13zm-1445-24c-3-3-11 0-18 7-9 10-8 11 6 5 10-3 15-9 12-12zm325 14c0-2-7-7-16-10-8-3-12-2-9 4 6 10 25 14 25 6zm52-21c2 3 5-2 5-10 0-11-4-12-10-6-7 7-15 5-24-7-13-15-13-15-4 4 7 15 7 25-2 35-7 7-3 6 9-4 11-9 23-15 26-12zm947 8c-6-7-17-13-23-12-7 0-6 2 2 6 6 2 10 8 8 12-3 4 1 8 9 8 11 0 12-4 4-14zm152 0c13-16 12-17-3-4-10 7-18 15-18 17 0 8 8 3 21-13zm204-11c-3-3 1-12 8-21 11-14 10-14-6-2-9 8-15 16-12 19s-1 12-8 21c-11 14-10 14 6 2 9-8 15-16 12-19zm120 10c-3-3-11 0-18 7-9 10-8 11 6 5 10-3 15-9 12-12zm221 6c3-4-1-5-10-4-8 1-18 5-22 8-3 4 1 5 10 4 8-1 18-5 22-8zm-1520-10c5 4 5 3 1-2-12-15-34-15-34 0 0 9 4 11 12 4 7-5 16-6 21-2zm1071-6c-10-10-15-21-12-24 3-2-2-5-10-5-10 0-12 4-5 12 5 7 6 16 2 20-4 5-2 5 5 1 6-3 14-2 18 4 3 5 9 10 12 10s-1-8-10-18zm273 14c0-2-8-10-17-17-16-13-17-12-4 4s21 21 21 13zm-1910-10c0-2-8-10-17-17-16-13-17-12-4 4s21 21 21 13zm170 0c0-2-7-7-16-10-8-3-12-2-9 4 6 10 25 14 25 6zm1356-8c4-7 4-10-1-6-4 4-15 2-24-5-14-11-14-10-2 6 16 20 18 21 27 5zm180 0c3-4-2-5-13-3-10 1-27-5-38-14-20-16-20-16-2 6 17 20 39 24 53 11zm114 6c0-8-19-13-24-6-3 5 1 9 9 9s15-2 15-3zm-1549-21c13-16 12-17-3-4-10 7-18 15-18 17 0 8 8 3 21-13zm1156 2c0-8-4-15-9-15-10 0-11 14-1 23 9 10 10 9 10-8zm158-13c-3-3-11 0-18 7-9 10-8 11 6 5 10-3 15-9 12-12zm-1341-22c-6-6-10-3-10 10s4 16 10 10c7-7 7-13 0-20zm78 15c2 3 5-2 5-10 0-19 0-19-23 7-12 14-13 18-3 10 9-6 18-10 21-7zm68 11c0-2-6-9-14-15-11-9-16-9-22 0-4 7-3 9 4 5 6-3 13-2 17 4 6 10 15 14 15 6zm127-2c-3-3-12-4-19-1-8 3-5 6 6 6 11 1 17-2 13-5zm1009-13c0-16-3-17-14-9-12 10-7 19 13 28 1 0 1-9 1-19zm161 4c0-8-3-13-5-10-3 3-12-1-21-7-10-8-9-4 3 10 23 26 23 26 23 7zm123 11c0-2-8-10-17-17-16-13-17-12-4 4s21 21 21 13zm-1970-10c0-2-8-10-17-17-16-13-17-12-4 4s21 21 21 13zm601-19c-10-9-11-8-5 6 3 10 9 15 12 12s0-11-7-18zm1429 17c0-8-19-13-24-6-3 5 1 9 9 9s15-2 15-3zm84-2c3-5-1-9-9-9s-12 4-9 9c3 4 7 8 9 8s6-4 9-8zm-523-19c13-16 12-17-3-4-10 7-18 15-18 17 0 8 8 3 21-13zm319 13c0-2-8-10-17-17-16-13-17-12-4 4s21 21 21 13zm-1820-16c0-5-2-10-4-10-3 0-8 5-11 10-3 6-1 10 4 10 6 0 11-4 11-10zm140-2c0-4-4-8-9-8-6 0-12 4-15 8-3 5 1 9 9 9s15-4 15-9zm252-13c2 3 5-2 5-10 0-10-4-12-12-5-7 5-16 6-21 2s-6-3-2 2 2 16-4 25c-10 12-7 12 8-2 11-9 23-15 26-12zm1545 7c-17-18-51-27-41-10 3 5 9 6 14 3 4-3 13 2 20 10s15 15 18 15-2-8-11-18zm40 11c-4-3 1-16 10-27 18-21 18-21-4-2-20 16-23 36-6 36 4 0 3-3 0-7zm-1800-16c0-8-6-14-14-14-9 0-10 4-2 14 6 7 12 13 14 13 1 0 2-6 2-13zm297-17c-6-6-10-3-10 10s4 16 10 10c7-7 7-13 0-20zm1102-6c0-13-2-22-5-19s-6 17-7 31c0 13 2 22 5 19s6-17 7-31zm104 32c0-2-8-10-17-17-16-13-17-12-4 4s21 21 21 13zm76-11c-1-8-5-17-8-21-5-4-4 16 1 34 3 9 9-1 7-13zm-1800-10c-1-8-5-17-8-21-5-4-4 16 1 34 3 9 9-1 7-13zm294 11c0-2-8-10-17-17-16-13-17-12-4 4s21 21 21 13zm90-1c0-7-30-13-34-7-3 4 4 9 15 9 10 1 19 0 19-2zm200-5c0-5-4-10-10-10-5 0-10 5-10 10 0 6 5 10 10 10 6 0 10-4 10-10zm1640 6c0-2-7-7-16-10-8-3-12-2-9 4 6 10 25 14 25 6zm-2185-26c3-5 1-10-4-10-6 0-11 5-11 10 0 6 2 10 4 10 3 0 8-4 11-10zm302-13c1-11 1-18 0-16-2 2-8 11-15 20-9 12-9 16 1 16 7 0 14-9 14-20zm1560 6c0-9-4-10-14-2-7 6-13 12-13 14 0 1 6 2 13 2 8 0 14-6 14-14zm34 0c13-16 12-17-3-4-17 13-22 21-14 21 2 0 10-8 17-17zm-1731-14c0-5-4-9-8-9-5 0-9 7-9 15s4 12 9 9c4-3 8-9 8-15zm358-4c-3-3-9 2-12 12-6 14-5 15 5 6 7-7 10-15 7-18zm38 10c-1-8-5-17-8-21-5-4-4 16 1 34 3 9 9-1 7-13zm1084 11c0-2-8-10-17-17-16-13-17-12-4 4s21 21 21 13zm67-13c-14-14-19-15-29-4-11 10-10 11 3 6 10-4 20-2 24 4 3 6 9 11 13 11 3 0-1-8-11-17zm80-1c-10-10-16-21-15-23 2-2 1-3-1-1-3 1-6 9-7 17s2 13 6 10c5-3 11-1 15 5 3 5 9 10 12 10s-1-8-10-18zm-1933-8c3-8 2-12-4-9s-10 10-10 16c0 14 7 11 14-7zm412 4c3-4-1-5-10-4-8 1-18 5-22 8-3 4 1 5 10 4 8-1 18-5 22-8zm185-5c12-16 12-17-2-6-9 7-20 9-24 5-5-4-5-1-1 6 9 16 11 15 27-5zm1366-1c0-10-6-19-13-19-9 0-9 5-1 19 7 10 13 18 14 18s1-8 0-18zm208 8c-3-5-12-10-18-10-7 0-6 4 3 10 19 12 23 12 15 0zm-1685-4c0-2-8-10-17-17-16-13-17-12-4 4s21 21 21 13zm1319-9c8-10 7-14-2-14-8 0-14 6-14 14 0 7 1 13 2 13 2 0 8-6 14-13zm79 0c8-10 6-13-7-13-11 0-17 6-14 13s6 13 8 13c1 0 7-6 13-13zm-1783-6c3-5 2-12-3-15s-9 1-9 9c0 17 3 19 12 6zm40-1c3-5 1-10-4-10-6 0-11 5-11 10 0 6 2 10 4 10 3 0 8-4 11-10zm502 4c-3-3-12-4-19-1-8 3-5 6 6 6 11 1 17-2 13-5zm1478-12c-3-3-11 0-18 7-9 10-8 11 6 5 10-3 15-9 12-12zm-1698-5c0-8-6-14-14-14-9 0-10 4-2 14 6 7 12 13 14 13 1 0 2-6 2-13zm79-7c0-12-4-16-9-11s-6 14-3 20c10 15 12 14 12-9zm100 8c5 4 6 3 2-2s-2-16 4-25c9-11 6-10-9 2-16 14-22 15-26 5-3-7-4-3-4 9 1 15 5 19 13 13 6-6 15-6 20-2zm1166 5c-6-2-9-10-6-15 4-7 2-8-5-4-13 9-5 26 12 25 9 0 8-2-1-6zm248-8c-7-8-17-15-23-15s-2 7 9 15c25 19 30 19 14 0zm70 12c0-2-10-12-22-23l-23-19 19 23c18 21 26 27 26 19zm-2026-35c2-4-5-9-17-9-17-2-19 0-7 7 18 12 18 12 24 2zm50 0c3-5-1-9-9-9s-12 4-9 9c3 4 7 8 9 8s6-4 9-8zm36-2c0-5-2-10-4-10-3 0-8 5-11 10-3 6-1 10 4 10 6 0 11-4 11-10zm331-7c13-16 12-17-3-4-17 13-22 21-14 21 2 0 10-8 17-17zm1277-8c-3-3-9 2-12 12-6 14-5 15 5 6 7-7 10-15 7-18zm472 21c0-3-4-8-10-11-5-3-10-1-10 4 0 6 5 11 10 11 6 0 10-2 10-4zm40 0c0-3-4-8-10-11-5-3-10-1-10 4 0 6 5 11 10 11 6 0 10-2 10-4zm-1840-10c0-2-8-10-17-17-16-13-17-12-4 4s21 21 21 13zm1470-11c-7-8-17-15-23-15s-2 7 9 15c25 19 30 19 14 0zm-1615-4c3-5 2-12-3-15s-9 1-9 9c0 17 3 19 12 6zm176-8c13-16 12-17-3-4-10 7-18 15-18 17 0 8 8 3 21-13zm139 12c0-2-6-8-13-14-10-8-14-7-14 2 0 8 6 14 14 14 7 0 13-1 13-2zm1486-10c-1-8-5-17-8-21-5-4-4 16 1 34 3 9 9-1 7-13zm89 5c-3-5-12-10-18-10-7 0-6 4 3 10 19 12 23 12 15 0zm132-9c0-11-5-18-9-15s-5 11-1 19c7 21 12 19 10-4zm43 9c0-5-2-10-4-10-3 0-8 5-11 10-3 6-1 10 4 10 6 0 11-4 11-10zm-499-17c13-16 12-17-3-4-17 13-22 21-14 21 2 0 10-8 17-17zm-1446-11c-3-3-11 0-18 7-9 10-8 11 6 5 10-3 15-9 12-12zm1530 9c-9-8-36-10-30-2 2 4 11 8 20 8 8 0 13-3 10-6zm60-38c-18-17-18-17-6 0 11 14 11 20 0 35-12 16-12 16 6 0 19-18 19-18 0-35zm275 43c0-3-4-8-10-11-5-3-10-1-10 4 0 6 5 11 10 11 6 0 10-2 10-4zm-2064-32c1-9 0-13-4-10-3 4-7 14-8 22-1 9 0 13 4 10 3-4 7-14 8-22zm137 11c-3-9-8-14-10-11-3 3-2 9 2 15 9 16 15 13 8-4zm204 0c0-8-3-13-5-10-3 3-15-3-26-12-15-14-18-14-8-2 6 9 8 20 4 24-4 5-2 5 5 1 6-3 14-2 18 4 9 14 12 13 12-5zm1284-27c-11-11-13-10-7 0 4 7 2 21-5 30-12 15-11 15 6 0 16-15 17-20 6-30zm-1797 24c3-5-1-9-9-9s-12 4-9 9c3 4 7 8 9 8s6-4 9-8zm146 2c0-8-19-13-24-6-3 5 1 9 9 9s15-2 15-3zm422-5c2-2 1-3-1-2-2 2-9-2-16-7-8-7-12-5-12 4 0 12 22 16 29 5zm1368-1c0-6-3-8-7-5-3 4-13 1-22-6-14-11-14-10-2 6 15 20 31 22 31 5zm380 2c0-5-5-10-11-10-5 0-7 5-4 10 3 6 8 10 11 10 2 0 4-4 4-10zm-264-23c0-13-6-24-13-24-6 0-9 5-5 11s7 14 8 19c5 26 10 23 10-6zm-1671 4c-9-8-36-10-30-2 2 4 11 8 20 8 8 0 13-3 10-6zm70-9c-3-3-11 0-18 7-9 10-8 11 6 5 10-3 15-9 12-12zm1745 14c0-3-4-8-10-11-5-3-10-1-10 4 0 6 5 11 10 11 6 0 10-2 10-4zm-1683-28c0-13-1-17-4-10-3 6-10 9-16 5-7-4-6 1 2 10 17 21 17 21 18-5zm1423 19c0-2-8-11-18-20-15-14-19-15-19-2 0 8 4 12 8 9 4-2 10 0 14 6 6 10 15 14 15 7zm-1680-13c0-8-19-13-24-6-3 5 1 9 9 9s15-2 15-3zm1597-18c18-21 18-21-3-3-11 9-23 14-26 11s-8-1-12 4c-11 18 25 8 41-12zm-1366-13c13-16 12-17-3-4-17 13-22 21-14 21 2 0 10-8 17-17zm1324 8c3-5 2-12-3-15s-9 1-9 9c0 17 3 19 12 6zm178-14c4 3 7 1 7-5 0-19-15-14-36 11-19 22-19 22 2 4 11-9 24-14 27-10zm-1713 9c0-2-8-10-17-17-16-13-17-12-4 4s21 21 21 13zm117-11c0-8-4-15-9-15-10 0-11 14-1 23 9 10 10 9 10-8zm-163-4c-8-8-34-10-38-2-3 4 6 7 19 7 14 0 22-2 19-5zm222-40c-1-27-3-48-5-45-2 2-11-2-20-9-14-11-15-10-1 7 8 11 16 32 16 48 2 38 3 48 7 48 2 0 3-22 3-49zm55 26c-10-9-11-8-5 6 3 10 9 15 12 12s0-11-7-18zm1345 1c19-23 19-23-2-5-11 9-24 14-29 10-4-5-5-2-1 5 9 16 10 16 32-10zm61 7c0-8-4-12-9-9s-6 10-3 15c9 13 12 11 12-6zm140-4c0-11-5-18-9-15s-5 11-1 19c7 21 12 19 10-4zm183-5c0-3-4-8-10-11-5-3-10-1-10 4 0 6 5 11 10 11 6 0 10-2 10-4zm34-4c3-5-1-9-9-9s-12 4-9 9c3 4 7 8 9 8s6-4 9-8zm-431-20c15-16 15-18-1-18-10 0-18 8-18 18s1 18 2 18c0 0 8-8 17-18zm-1503-2c0-5-2-10-4-10-3 0-8 5-11 10-3 6-1 10 4 10 6 0 11-4 11-10zm40 1c0-5-8-15-17-22-16-12-17-12-6 2 7 9 10 19 6 22-3 4-1 7 5 7 7 0 12-4 12-9zm157 3c-3-3-12-6-20-8-8-1-23-8-33-16-18-14-18-14-2 6 9 11 27 20 39 21s19 0 16-3zm1404-7c-6-8-9-16-6-19 3-2-2-5-10-5-13 0-13 3 2 19 19 21 31 25 14 5zm53 1c-3-4-11-5-19-1-21 7-19 12 4 10 11 0 18-5 15-9zm46 6c0-8-19-13-24-6-3 5 1 9 9 9s15-2 15-3zm-140-20c0-8-19-13-24-6-3 5 1 9 9 9s15-2 15-3zm-1644-26c3-4-1-5-10-4-8 1-18 5-22 8-3 4 1 5 10 4 8-1 18-5 22-8zm135-5c13-16 12-17-3-4-17 13-22 21-14 21 2 0 10-8 17-17zm1464 9c-3-3 0-11 6-19 17-20 5-16-14 5-15 16-15 19-2 19 8 0 13-3 10-5zm159-8c3-8 2-12-4-9s-10 10-10 16c0 14 7 11 14-7zm-36-19c-3-3-9 2-12 12-6 14-5 15 5 6 7-7 10-15 7-18zm-1898 5c0-5-5-10-11-10-5 0-7 5-4 10 3 6 8 10 11 10 2 0 4-4 4-10zm255 1c3-5 2-12-3-15s-9 1-9 9c0 17 3 19 12 6zm41-27c1-9-1-13-4-9-4 4-7 10-7 13 0 4-4 14-9 22-7 12-6 13 4 3 8-7 15-20 16-29zm45 3c-6-8-9-16-6-19 3-2-2-5-10-5-13 0-13 3 2 19 19 21 31 25 14 5zm1595-2c-3-23-12-26-13-5-1 11 2 20 7 20 4 0 7-7 6-15zm-1763-30c-7-21-12-19-10 4 0 11 5 18 9 15s5-11 1-19zm47 13c0-4-4-8-9-8-6 0-12 4-15 8-3 5 1 9 9 9s15-4 15-9zm36-13c1-8-2-15-6-15-5 0-8 9-7 20 1 21 10 18 13-5zm1718 17c3-5-1-9-9-9s-12 4-9 9c3 4 7 8 9 8s6-4 9-8zm181-2c3-5 1-10-4-10-6 0-11 5-11 10 0 6 2 10 4 10 3 0 8-4 11-10zm45 4c0-8-19-13-24-6-3 5 1 9 9 9s15-2 15-3zm-403-19c0-8-4-12-9-9s-6 10-3 15c9 13 12 11 12-6zm-1397-1c0-8-19-13-24-6-3 5 1 9 9 9s15-2 15-3zm-103-21c-4-3 1-16 10-27 18-21 18-21-4-2-25 21-30 36-11 36 6 0 8-3 5-7zm1533 3c0-2-8-10-17-17-16-13-17-12-4 4s21 21 21 13zm101-13c13-16 12-17-3-4-17 13-22 21-14 21 2 0 10-8 17-17zm-1571 3c0-2-8-10-17-17-16-13-17-12-4 4s21 21 21 13zm1536-11c-1-8-5-17-8-21-5-4-4 16 1 34 3 9 9-1 7-13zm-1636-5c0-5-2-10-4-10-3 0-8 5-11 10-3 6-1 10 4 10 6 0 11-4 11-10zm1598-11c9-12 9-16-1-16-7 0-14 9-14 20-1 11-1 18 0 16 2-2 8-11 15-20zm-1863 2c3-5 2-12-3-15s-9 1-9 9c0 17 3 19 12 6zm226-8c13-16 12-17-3-4-10 7-18 15-18 17 0 8 8 3 21-13zm159 3c0-2-7-7-16-10-8-3-12-2-9 4 6 10 25 14 25 6zm1445-6c3-6-1-7-9-4-18 7-21 14-7 14 6 0 13-4 16-10zm-1885-20c0-5-2-10-4-10-3 0-8 5-11 10-3 6-1 10 4 10 6 0 11-4 11-10zm2014-6c3-8 2-12-4-9s-10 10-10 16c0 14 7 11 14-7zm246 12c0-3-4-8-10-11-5-3-10-1-10 4 0 6 5 11 10 11 6 0 10-2 10-4zm-2015-26c3-6-1-7-9-4-18 7-21 14-7 14 6 0 13-4 16-10zm45 4c0-8-19-13-24-6-3 5 1 9 9 9s15-2 15-3zm26-30c1-9 0-13-4-10-3 4-7 14-8 22-1 9 0 13 4 10 3-4 7-14 8-22zm1804 22c0-2-8-10-17-17-16-13-17-12-4 4s21 21 21 13zm134-25c-2-3-12 3-22 13-16 17-16 18 5 5 12-7 20-15 17-18zm-314 10c0-6-4-12-8-15-5-3-9 1-9 9s4 15 9 15c4 0 8-4 8-9zm70 3c0-8-19-13-24-6-3 5 1 9 9 9s15-2 15-3zm26-30c1-9 0-13-4-10-3 4-7 14-8 22-1 9 0 13 4 10 3-4 7-14 8-22zm-1791 6c-3-5-12-10-18-10-7 0-6 4 3 10 19 12 23 12 15 0zm35 0c0-5-5-10-11-10-5 0-7 5-4 10 3 6 8 10 11 10 2 0 4-4 4-10zm81-3c-6-8-9-16-6-19 3-2-2-5-10-5-13 0-13 3 2 19 19 21 31 25 14 5zm36-2c0-8-4-12-9-9s-6 10-3 15c9 13 12 11 12-6zm-77-15c0-5-2-10-4-10-3 0-8 5-11 10-3 6-1 10 4 10 6 0 11-4 11-10zm-185-20c3-5 1-10-4-10-6 0-11 5-11 10 0 6 2 10 4 10 3 0 8-4 11-10zm1781-26c-1-8-6-17-12-21-5-4-6-4-2 1s3 14-2 21c-7 8-5 12 4 12 8 0 13-6 12-13zm125 3c-6-8-7-18-3-22 4-5 1-5-6-1-10 6-10 11-1 22 6 8 14 14 16 14 3 0 0-6-6-13zm-1944-22c0-8-4-12-9-9s-6 10-3 15c9 13 12 11 12-6zm1899-31c1-9 0-13-4-10-3 4-7 14-8 22-1 9 0 13 4 10 3-4 7-14 8-22zm180-6c3-4-1-5-10-4-8 1-18 5-22 8-3 4 1 5 10 4 8-1 18-5 22-8zm-1781-10c5 4 5 1 1-6-6-10-11-10-22-1-8 6-14 14-14 16 0 3 6 0 13-6 8-6 18-7 22-3zm-261-26c3-5-1-9-9-9s-12 4-9 9c3 4 7 8 9 8s6-4 9-8zm1966 4c0-3-4-8-10-11-5-3-10-1-10 4 0 6 5 11 10 11 6 0 10-2 10-4zm-130-40c0-2-8-10-17-17-16-13-17-12-4 4s21 21 21 13zm170-2c0-8-19-13-24-6-3 5 1 9 9 9s15-2 15-3zm-1850-18c0-2-8-10-17-17-16-13-17-12-4 4s21 21 21 13zm104-12c3-8 2-12-4-9s-10 10-10 16c0 14 7 11 14-7zm1607 3c-6-8-7-18-3-22 4-5 1-5-6-1-10 6-10 11-1 22 6 8 14 14 16 14 3 0 0-6-6-13zm-1627-43c3-8 2-12-4-9s-10 10-10 16c0 14 7 11 14-7zm-159-6c5 4 5 1 1-6-6-10-11-10-22-1-8 6-14 14-14 16 0 3 6 0 13-6 8-6 18-7 22-3zm1882-45c-4-3-1-13 6-22 11-14 10-14-5-2-16 12-16 31-1 31 4 0 3-3 0-7zm-1822-12c3-5 2-12-3-15s-9 1-9 9c0 17 3 19 12 6zm149-9c3-5-1-9-9-9s-12 4-9 9c3 4 7 8 9 8s6-4 9-8zm-209-21c3-5 2-12-3-15s-9 1-9 9c0 17 3 19 12 6zm85-1c0-5-5-10-11-10-5 0-7 5-4 10 3 6 8 10 11 10 2 0 4-4 4-10zm40 0c0-5-5-10-11-10-5 0-7 5-4 10 3 6 8 10 11 10 2 0 4-4 4-10zm-186-26c3-8 2-12-4-9s-10 10-10 16c0 14 7 11 14-7zm140-12c3-5-1-9-9-9s-12 4-9 9c3 4 7 8 9 8s6-4 9-8zm1726 4c0-3-4-8-10-11-5-3-10-1-10 4 0 6 5 11 10 11 6 0 10-2 10-4zm-1716-44c3-5-1-9-9-9s-12 4-9 9c3 4 7 8 9 8s6-4 9-8zm36-2c0-5-2-10-4-10-3 0-8 5-11 10-3 6-1 10 4 10 6 0 11-4 11-10zm1684 2c3-5-1-9-9-9s-12 4-9 9c3 4 7 8 9 8s6-4 9-8zm-1789-11c3-5 2-12-3-15s-9 1-9 9c0 17 3 19 12 6zm205-5c0-2-7-7-16-10-8-3-12-2-9 4 6 10 25 14 25 6zm1460-60c0-3-4-8-10-11-5-3-10-1-10 4 0 6 5 11 10 11 6 0 10-2 10-4zm76-22c1-9 0-13-4-10-3 4-7 14-8 22-1 9 0 13 4 10 3-4 7-14 8-22zm-1642-26c-3-4-11-5-19-1-21 7-19 12 4 10 11 0 18-5 15-9zm56 6c0-8-19-13-24-6-3 5 1 9 9 9s15-2 15-3zm25-4c3-5 1-10-4-10-6 0-11 5-11 10 0 6 2 10 4 10 3 0 8-4 11-10zm1525 6c0-3-4-8-10-11-5-3-10-1-10 4 0 6 5 11 10 11 6 0 10-2 10-4zm-1466-36c-6-6-10-3-10 10s4 16 10 10c7-7 7-13 0-20zm1511 10c-3-5-12-10-18-10-7 0-6 4 3 10 19 12 23 12 15 0zm-1601-18c3-5-1-9-9-9s-12 4-9 9c3 4 7 8 9 8s6-4 9-8zm36-2c0-5-2-10-4-10-3 0-8 5-11 10-3 6-1 10 4 10 6 0 11-4 11-10zm110 6c0-2-8-10-17-17-16-13-17-12-4 4s21 21 21 13zm1406-11c-1-8-5-17-8-21-5-4-4 16 1 34 3 9 9-1 7-13zm-1621-4c3-5 2-12-3-15s-9 1-9 9c0 17 3 19 12 6zm202-36c0-8-4-12-9-9s-6 10-3 15c9 13 12 11 12-6zm1397-25c-6-6-10-3-10 10s4 16 10 10c7-7 7-13 0-20zm-1539 2c-3-3-11 0-18 7-9 10-8 11 6 5 10-3 15-9 12-12zm196 1c13-16 12-17-3-4-10 7-18 15-18 17 0 8 8 3 21-13zm-111-13c0-5-2-10-4-10-3 0-8 5-11 10-3 6-1 10 4 10 6 0 11-4 11-10zm1265 0c3-6-1-7-9-4-18 7-21 14-7 14 6 0 13-4 16-10zm69 1c3-5-2-15-12-22-15-12-16-12-5 2 7 9 10 19 6 22-3 4-4 7 0 7 3 0 8-4 11-9zm-1334-41c0-5-5-10-11-10-5 0-7 5-4 10 3 6 8 10 11 10 2 0 4-4 4-10zm184-2c-3-4-9-8-15-8-5 0-9 4-9 8 0 5 7 9 15 9s12-4 9-9zm1111-6c-3-3-11 0-18 7-9 10-8 11 6 5 10-3 15-9 12-12zm-1400-20c-3-3-11 0-18 7-9 10-8 11 6 5 10-3 15-9 12-12zm244 15c-2-1-13-9-24-17-19-14-19-14-6 3 7 9 18 17 24 17s8-1 6-3zm1202-44c13-16 12-17-3-4-17 13-22 21-14 21 2 0 10-8 17-17zm-1387-1c3-5-1-9-9-9s-12 4-9 9c3 4 7 8 9 8s6-4 9-8zm1186 4c0-3-4-8-10-11-5-3-10-1-10 4 0 6 5 11 10 11 6 0 10-2 10-4zm250-2c0-8-19-13-24-6-3 5 1 9 9 9s15-2 15-3zm28-29c-3-3-9 2-12 12-6 14-5 15 5 6 7-7 10-15 7-18zm-1418 5c0-5-2-10-4-10-3 0-8 5-11 10-3 6-1 10 4 10 6 0 11-4 11-10zm115-12c5 4 5 1 1-6-6-10-11-10-22-1-8 6-14 14-14 16 0 3 6 0 13-6 8-6 18-7 22-3zm122-15c0-10-4-10-16-1-9 7-18 13-20 15-2 1 5 1 16 0 11 0 20-7 20-14zm963 11c0-8-19-13-24-6-3 5 1 9 9 9s15-2 15-3zm-899-21c13-16 12-17-3-4-10 7-18 15-18 17 0 8 8 3 21-13zm-261-3c0-5-5-10-11-10-5 0-7 5-4 10 3 6 8 10 11 10 2 0 4-4 4-10zm1017-13c1-11 1-18 0-16-2 2-8 11-15 20-9 12-9 16 1 16 7 0 14-9 14-20zm203 19c0-3-4-8-10-11-5-3-10-1-10 4 0 6 5 11 10 11 6 0 10-2 10-4zm-903-21c0-8-3-13-5-10-3 3-12-1-21-7-10-8-9-4 3 10 23 26 23 26 23 7zm840 0c0-8-4-15-9-15-10 0-11 14-1 23 9 10 10 9 10-8zm-1043-7c-3-4-11-5-19-1-21 7-19 12 4 10 11 0 18-5 15-9zm71 2c-3-5-12-10-18-10-7 0-6 4 3 10 19 12 23 12 15 0zm806-7c13-17 13-17-6-3-11 8-22 16-24 17-2 2 0 3 6 3s17-8 24-17zm-730-16c-6-8-7-18-3-22 4-5 1-5-6-1-10 6-10 11-1 22 6 8 14 14 16 14 3 0 0-6-6-13zm799 5c0-5-7-9-15-9s-12 4-9 9c3 4 9 8 15 8 5 0 9-4 9-8zm-947-17c-3-9-8-14-10-11-3 3-2 9 2 15 9 16 15 13 8-4zm241-15c-6-6-10-3-10 10s4 16 10 10c7-7 7-13 0-20zm541 21c3-5 2-12-3-15s-9 1-9 9c0 17 3 19 12 6zm-481-10c3-5-2-15-12-22-15-12-16-12-5 2 7 9 10 19 6 22-3 4-4 7 0 7 3 0 8-4 11-9zm447-18c13-16 12-17-3-4-17 13-22 21-14 21 2 0 10-8 17-17zm-821-3c0-5-2-10-4-10-3 0-8 5-11 10-3 6-1 10 4 10 6 0 11-4 11-10zm177-10c1-11-2-20-7-20-6 0-7 17-1 38 3 8 7-1 8-18zm688 10c-3-5-12-10-18-10-7 0-6 4 3 10 19 12 23 12 15 0zm45 5c0-2-6-8-13-14-10-8-14-7-14 2 0 8 6 14 14 14 7 0 13-1 13-2zm35-5c3-6-1-7-9-4-18 7-21 14-7 14 6 0 13-4 16-10zm52-15c0-8-3-13-5-10-3 3-12-1-21-7-10-8-9-4 3 10 23 26 23 26 23 7zm100 0c0-8-4-12-9-9s-6 10-3 15c9 13 12 11 12-6zm83 11c0-2-6-9-14-15-11-9-16-9-22 0-4 7-3 9 4 5 6-3 13-2 17 4 6 10 15 14 15 6zm-1129-23c13-16 12-17-3-4-10 7-18 15-18 17 0 8 8 3 21-13zm206-7c18-21 18-21-3-3-11 9-23 14-26 11s-8-1-12 4c-11 18 25 8 41-12zm673 20c0-2-8-10-17-17-16-13-17-12-4 4s21 21 21 13zm129 1c-2-2-11-8-20-15-12-9-16-9-16 1 0 7 9 14 20 14 11 1 18 1 16 0zm-762-36c1-11-5-25-15-32-15-12-16-12-5 2 7 8 11 26 8 39-2 12-1 20 2 16 4-4 8-15 10-25zm578 19c3-6-1-7-9-4-18 7-21 14-7 14 6 0 13-4 16-10zm-458-15c0-8-4-12-9-9-4 3-8 9-8 15 0 5 4 9 8 9 5 0 9-7 9-15zm403 11c0-2-7-7-16-10-8-3-12-2-9 4 6 10 25 14 25 6zm31-13c13-16 12-17-3-4-17 13-22 21-14 21 2 0 10-8 17-17zm90 4c-6-8-8-17-4-20 3-4 1-7-5-7-15 0-15 13 0 28 16 16 23 15 9-1zm-706-6c3-5 2-12-3-15s-9 1-9 9c0 17 3 19 12 6zm761-6c-1-8-5-17-8-21-5-4-4 16 1 34 3 9 9-1 7-13zm-899-10c0-8-4-12-9-9s-6 10-3 15c9 13 12 11 12-6zm660-2c0-9-4-10-14-2-7 6-13 12-13 14 0 1 6 2 13 2 8 0 14-6 14-14zm300-2c0-11-5-18-9-15s-5 11-1 19c7 21 12 19 10-4zm-600-23c4-28-6-18-12 12-2 12-1 20 2 16 4-4 8-16 10-28zm647 14c3-5-1-9-9-9s-15 4-15 9c0 4 4 8 9 8 6 0 12-4 15-8zm-858-24c12-14 13-18 3-10-9 6-18 10-21 7-2-3-5 2-5 10 0 19 0 19 23-7zm87-4c14-17 14-21 2-21-8 0-12 4-9 8 2 4 0 10-6 14-5 3-10 11-10 17s1 9 3 7c1-2 10-13 20-25zm467 22c0-2-8-10-17-17-16-13-17-12-4 4s21 21 21 13zm-620-10c0-3-4-8-10-11-5-3-10-1-10 4 0 6 5 11 10 11 6 0 10-2 10-4zm557-13c0-9-4-10-14-2-7 6-13 12-13 14 0 1 6 2 13 2 8 0 14-6 14-14zm158-3c10-11 16-20 13-20s-13 9-23 20-16 20-13 20 13-9 23-20zm122 13c-4-3-1-13 6-22 11-14 10-14-5-2-21 15-23 31-6 31 6 0 8-3 5-7zm234-16c-10-9-11-8-5 6 3 10 9 15 12 12s0-11-7-18zm-875-13c1-9 0-13-4-10-3 4-7 14-8 22-1 9 0 13 4 10 3-4 7-14 8-22zm443 13c8-10 7-14-2-14-8 0-14 6-14 14 0 7 1 13 2 13 2 0 8-6 14-13zm238-2c0-8-4-12-9-9s-6 10-3 15c9 13 12 11 12-6zm-751-7c3-4-1-5-10-4-8 1-18 5-22 8-3 4 1 5 10 4 8-1 18-5 22-8zm98-18c-6-6-10-3-10 10s4 16 10 10c7-7 7-13 0-20zm377 12c-7-2-18 1-23 6-8 8-4 9 13 5 13-4 18-8 10-11zm80 5c-6-8-8-17-4-20 3-4 1-7-5-7-15 0-15 13 0 28 16 16 23 15 9-1zm-661 0c0-2-8-11-18-20-15-14-19-15-19-2 0 8 4 12 8 9 4-2 10 0 14 6 6 10 15 14 15 7zm796-23c1-9 0-13-4-10-3 4-7 14-8 22-1 9 0 13 4 10 3-4 7-14 8-22zm-880 4c4-7 4-10-1-6-4 4-15 2-24-5-14-11-14-10-2 6 16 20 18 21 27 5zm654-3c0-2-6-5-13-8-8-3-14 1-14 8s6 11 14 8c7-3 13-6 13-8zm130 1c0-2-8-10-17-17-16-13-17-12-4 4s21 21 21 13zm-676-18c-3-4-9-8-15-8-5 0-9 4-9 8 0 5 7 9 15 9s12-4 9-9zm160 4c3-5-1-9-9-9s-12 4-9 9c3 4 7 8 9 8s6-4 9-8zm397-5c-6-8-7-18-3-22 4-5 1-5-6-1-10 6-10 11-1 22 6 8 14 14 16 14 3 0 0-6-6-13zm190-4c13-16 12-17-3-4-17 13-22 21-14 21 2 0 10-8 17-17zm269 7c0-5-5-10-11-10-5 0-7 5-4 10 3 6 8 10 11 10 2 0 4-4 4-10zm-959-17c13-16 12-17-3-4-10 7-18 15-18 17 0 8 8 3 21-13zm219 13c0-2-6-9-14-15-11-9-16-9-22 0-4 7-3 9 4 5 6-3 13-2 17 4 6 10 15 14 15 6zm417-15c-1-15-4-17-14-9-15 12-17 22-3 13 6-3 10-1 10 4 0 6 2 11 4 11 3 0 4-9 3-19zm-806-14c-10-9-11-8-5 6 3 10 9 15 12 12s0-11-7-18zm69 14c0-5-8-15-17-22-16-12-17-12-6 2 7 9 10 19 6 22-3 4-1 7 5 7 7 0 12-4 12-9zm78-12c9-12 9-16-1-16-7 0-14 9-14 20-1 11-1 18 0 16 2-2 8-11 15-20zm196-11c1-13 5-28 8-33 4-6-2-11-12-11-13 0-16 5-10 16 4 8 6 26 3 39-2 14 0 22 3 18 4-4 8-17 8-29zm300 16c3-8 2-12-4-9s-10 10-10 16c0 14 7 11 14-7zm43-6c-3-8-6-5-6 6-1 11 2 17 5 13 3-3 4-12 1-19zm353 18c0-2-8-10-17-17-16-13-17-12-4 4s21 21 21 13zm-765-24c-3-3-11 0-18 7-9 10-8 11 6 5 10-3 15-9 12-12zm-80-2c-3-5-12-10-18-10-7 0-6 4 3 10 19 12 23 12 15 0zm555 6c0-2-7-7-16-10-8-3-12-2-9 4 6 10 25 14 25 6zm31-13c13-16 12-17-3-4-17 13-22 21-14 21 2 0 10-8 17-17zm-520-9c2 3 5-9 5-25 2-30-6-34-10-6-1 8-8 23-16 33-14 17-13 18 1 7 9-7 18-11 20-9zm59 0c0-8-19-13-24-6-3 5 1 9 9 9s15-2 15-3zm307-9c0-8-4-12-9-9-4 3-8 9-8 15 0 5 4 9 8 9 5 0 9-7 9-15zm63 9c0-8-19-13-24-6-3 5 1 9 9 9s15-2 15-3zm57-1c-4-3-1-13 6-22 11-14 10-14-5-2-16 12-16 31-1 31 4 0 3-3 0-7zm79-33c-1-22-8-46-15-52-11-11-12-10-5 2 5 8 9 27 10 43 2 38 3 47 8 47 2 0 3-18 2-40zm74 36c0-2-8-10-17-17-16-13-17-12-4 4s21 21 21 13zm-740-21c0-1-10-10-22-21-14-12-18-13-10-3 6 9 10 18 7 21-3 2 2 5 10 5s15-1 15-2zm145-13c-3-3-11 0-18 7-9 10-8 11 6 5 10-3 15-9 12-12zm360 0c-3-3-11 0-18 7-9 10-8 11 6 5 10-3 15-9 12-12zm123-2c-7-10-14-17-17-15-4 4 18 35 25 35 2 0-1-9-8-20zm-71-12c-3-8-6-5-6 6-1 11 2 17 5 13 3-3 4-12 1-19zm-537 8c0-2-8-10-17-17-16-13-17-12-4 4s21 21 21 13zm480-11c0-2-6-5-13-8-8-3-14 1-14 8s6 11 14 8c7-3 13-6 13-8zm247 9c-3-3-12-6-20-8-8-1-23-8-33-16-18-14-18-14-2 6 9 11 27 20 39 21s19 0 16-3zm133 2c0-2-8-10-17-17-16-13-17-12-4 4s21 21 21 13zm-815-16c-3-5-12-10-18-10-7 0-6 4 3 10 19 12 23 12 15 0zm725 6c0-2-8-10-17-17-16-13-17-12-4 4s21 21 21 13zm-1020-16c0-5-5-10-11-10-5 0-7 5-4 10 3 6 8 10 11 10 2 0 4-4 4-10zm137 3c-4-3 1-16 10-27 14-15 14-18 2-8-9 6-18 9-22 6-3-3-4 2-2 13 5 24 4 23 12 23 3 0 3-3 0-7zm243 3c0-2-7-7-16-10-8-3-12-2-9 4 6 10 25 14 25 6zm42-15c-3-8-1-12 5-8 5 3 10 0 10-8 0-11-4-12-14-4-10 9-18 8-30-2-16-13-17-12-5 3 8 9 11 21 9 25-3 5 3 9 13 9 11 0 16-5 12-15zm-226-6c-1-8-5-17-8-21-5-4-4 16 1 34 3 9 9-1 7-13zm639 6c3-5 2-12-3-15s-9 1-9 9c0 17 3 19 12 6zm-784-18c13-16 12-17-3-4-17 13-22 21-14 21 2 0 10-8 17-17zm220 0c13-17 13-17-6-3-11 8-22 16-24 17-2 2 0 3 6 3s17-8 24-17zm686 2c0-8-4-12-9-9-4 3-8 9-8 15 0 5 4 9 8 9 5 0 9-7 9-15zm-97 1c0-2-8-10-17-17-16-13-17-12-4 4s21 21 21 13zm-512-22c5 3 9-1 9-9 0-16-31-4-43 18-6 8-3 8 9-1 9-8 20-11 25-8zm428-18c-2-38-12-39-12-1 0 18 3 32 7 30 3-3 5-15 5-29zm181 8c24-4 27-13 4-11-12 1-30 10-39 21-16 20-16 20 2 6 10-8 25-15 33-16zm163 22c0-3-4-8-10-11-5-3-10-1-10 4 0 6 5 11 10 11 6 0 10-2 10-4zm-900-10c0-2-6-9-14-15-11-9-16-9-22 0-4 7-3 9 4 5 6-3 13-2 17 4 6 10 15 14 15 6zm657-18c0-13-1-17-4-10-3 6-10 9-16 5-7-4-6 1 2 10 17 21 17 21 18-5zm-723 4c2-4-5-9-17-9-17-2-19 0-7 7 18 12 18 12 24 2zm590-3c3-3-6-5-19-5-14 0-25 4-25 8 0 8 36 6 44-3zm-478-21c3-4-1-5-10-4-8 1-18 5-22 8-3 4 1 5 10 4 8-1 18-5 22-8zm423-14c-6-8-15-12-18-8s0 9 7 11c6 3 9 10 6 15-4 7-2 8 5 4 9-6 9-11 0-22zm162 9c13-16 12-17-3-4-17 13-22 21-14 21 2 0 10-8 17-17zm-653-18c-3-3-9 2-12 12-6 14-5 15 5 6 7-7 10-15 7-18zm-78 5c0-5-4-10-10-10-5 0-10 5-10 10 0 6 5 10 10 10 6 0 10-4 10-10zm185 1c-9-8-36-10-30-2 2 4 11 8 20 8 8 0 13-3 10-6zm430-9c-3-3-11 0-18 7-9 10-8 11 6 5 10-3 15-9 12-12zm101 6c4-7 3-10-1-5-5 4-18-1-29-10-21-18-21-18-2 5 22 26 23 26 32 10zm198-4c3-8 2-12-4-9s-10 10-10 16c0 14 7 11 14-7zm-102-11c-1-4 7-17 16-28 17-20 17-20-4-2-11 9-21 24-21 32s2 13 5 11c2-2 4-8 4-13zm-510-12c-3-8-1-12 5-8 5 3 10 0 10-8 0-11-4-12-13-4-7 6-19 7-26 3-11-6-11-5 0 8 10 13 10 17 0 21-7 3-3 4 8 4 15-1 20-6 16-16zm484 7c3-4-1-5-10-4-8 1-18 5-22 8-3 4 1 5 10 4 8-1 18-5 22-8zm-700-20c12-14 13-18 3-10-9 6-18 10-21 7-2-3-5 2-5 10 0 19 0 19 23-7zm510 3c0-12-6-17-18-13-10 2-18 9-18 14s4 7 9 3c5-3 12-1 16 5 9 14 11 13 11-9zm121-3c-3-8-6-5-6 6-1 11 2 17 5 13 3-3 4-12 1-19zm-717 6c0-8-19-13-24-6-3 5 1 9 9 9s15-2 15-3zm37-11c0-9-4-10-14-2-7 6-13 12-13 14 0 1 6 2 13 2 8 0 14-6 14-14zm150-5c-3-8-6-5-6 6-1 11 2 17 5 13 3-3 4-12 1-19zm69-12c0-19-3-33-7-31-7 5-4 65 4 65 1 0 3-15 3-34zm408 26c3-5-1-9-9-9s-12 4-9 9c3 4 7 8 9 8s6-4 9-8zm33 1c-4-3-1-13 6-22 11-14 10-14-5-2-16 12-16 31-1 31 4 0 3-3 0-7zm207-2c-8-8-34-10-38-2-3 4 6 7 19 7 14 0 22-2 19-5zm32-19c-3-3 0-12 6-21 10-13 10-14-2-4-16 15-23 46-8 37 5-3 7-9 4-12zm-790-4c3-4-1-5-10-4-8 1-18 5-22 8-3 4 1 5 10 4 8-1 18-5 22-8zm-206-2c0-2-8-10-17-17-16-13-17-12-4 4s21 21 21 13zm136-22c1-9 0-13-4-10-3 4-7 14-8 22-1 9 0 13 4 10 3-4 7-14 8-22zm551 4c-3-8-6-5-6 6-1 11 2 17 5 13 3-3 4-12 1-19zm-421 5c-2-3-6-3-9-1s-15-6-28-17l-24-20 18 21c9 11 24 21 32 21s13-2 11-4zm21-15c-3-8-6-5-6 6-1 11 2 17 5 13 3-3 4-12 1-19zm108 13c3-5 2-12-3-15s-9 1-9 9c0 17 3 19 12 6zm519 0c-2-2 2-11 8-20 12-15 11-15-7 0-11 9-36 15-57 14s-38 2-38 5c0 4 22 6 49 6 27-1 48-3 45-5zm171-1c3-6-1-7-9-4-18 7-21 14-7 14 6 0 13-4 16-10zm-128-15c0-8-4-12-9-9s-6 10-3 15c9 13 12 11 12-6zm-195-7c-9-9-7-15 6-25 16-13 15-13-3-5-23 10-55 10-70 0-6-4-11 2-11 12s4 16 8 14c20-12 48-11 59 2 6 8 14 14 17 14s1-5-6-12zm-569-11c4 3 7 1 7-5 0-17-16-15-31 6-12 15-12 16 2 5 9-7 19-10 22-6zm64-6c-1-15-4-17-14-9-15 12-17 22-3 13 6-3 10-1 10 4 0 6 2 11 4 11 3 0 4-9 3-19zm397 6c-3-8-11-14-19-14-21 0-19 15 3 20 9 3 18 5 19 6 1 0 0-5-3-12zm222-32c-1-8-5-17-8-21-4-3-5 2-3 13 1 10-5 27-14 38-16 20-16 20 6 2 11-10 20-25 19-32zm-520 27c-8-7-66-10-70-3-2 3 13 7 35 7 22 1 37-1 35-4zm-200-11c-4-5 0-11 6-14 7-3 3-4-9-4-17 1-19 4-11 14 12 15 22 18 14 4zm206-8c-6-2-9-10-6-15 4-7 2-8-5-4-13 9-5 26 12 25 9 0 8-2-1-6zm558-7c-7-7-13-7-20 0-6 6-3 10 10 10s16-4 10-10zm-643-21c0-8-4-12-9-9-4 3-8 9-8 15 0 5 4 9 8 9 5 0 9-7 9-15zm113 6c0-5-7-12-16-15-14-5-15-4-4 9 14 17 20 19 20 6zm277-2c-9-6-14-15-11-21 4-7 2-8-5-4-14 9 3 36 23 36 6 0 3-5-7-11zm126-9c10-12 9-12-3-3-8 6-23 9-33 8-9-2-15 0-12 5 7 12 33 6 48-10zm161 4c3-8 2-12-4-9s-10 10-10 16c0 14 7 11 14-7zm-254-8c0-3-4-8-10-11-5-3-10-1-10 4 0 6 5 11 10 11 6 0 10-2 10-4z" transform="matrix(.1 0 0 -.1 0 512)"/></svg>